<?xml version="1.0" encoding="UTF-8" standalone="no"?>
<svg
   width="32"
   height="32"
   viewBox="0 0 32 32"
   fill="none"
   version="1.1"
   id="svg1"
   xmlns="http://www.w3.org/2000/svg"
   xmlns:svg="http://www.w3.org/2000/svg">
  <path
     d="M 16,0 C 7.163,0 0,7.163 0,16 c 0,8.837 7.163,16 16,16 8.837,0 16,-7.163 16,-16 C 32,7.163 24.837,0 16,0 Z"
     fill="#5651A3"
     id="path1" />
  <path
     d="m 9.1667,6.4167 h 1.6666 v 5 H 9.1667 v -5 z"
     fill="#ffffff"
     id="path2" />
  <path
     d="m 21.167,6.4167 h 1.6667 v 5 h -1.6667 v -5 z"
     fill="#ffffff"
     id="path3" />
  <path
     d="m 6.8333,9.1667 h 18.333 v 1.6667 H 6.8333 V 9.1667 Z"
     fill="#ffffff"
     id="path4" />
  <path
     d="m 8.333,12.833 h 15.333 v 1.667 H 8.333 v -1.667 z"
     fill="#ffffff"
     id="path5" />
  <path
     d="m 8.333,17.5 h 15.333 v 1.6667 H 8.333 V 17.5 Z"
     fill="#ffffff"
     id="path6" />
  <path
     d="m 11.167,21.167 h 9.666 v 1.667 h -9.666 v -1.667 z"
     fill="#ffffff"
     id="path7" />
  <path
     d="m 14.5,21.167 h 3 v 4.167 h -3 v -4.167 z"
     fill="#ffffff"
     id="path8" />
</svg> 