<?xml version="1.0" encoding="UTF-8" standalone="no"?>
<!-- Created with Inkscape (http://www.inkscape.org/) -->

<svg
   xmlns:dc="http://purl.org/dc/elements/1.1/"
   xmlns:cc="http://creativecommons.org/ns#"
   xmlns:rdf="http://www.w3.org/1999/02/22-rdf-syntax-ns#"
   xmlns:svg="http://www.w3.org/2000/svg"
   xmlns="http://www.w3.org/2000/svg"
   xmlns:sodipodi="http://sodipodi.sourceforge.net/DTD/sodipodi-0.dtd"
   xmlns:inkscape="http://www.inkscape.org/namespaces/inkscape"
   id="svg2"
   height="512"
   width="512"
   version="1.1"
   inkscape:version="0.48.1 r9760"
   sodipodi:docname="itoopie.svg"
   inkscape:export-filename="/home/hottuna/i2p.graphics/itoopie-seethru.png"
   inkscape:export-xdpi="1054.6875"
   inkscape:export-ydpi="1054.6875">
  <defs
     id="defs661" />
  <sodipodi:namedview
     pagecolor="#ffffff"
     bordercolor="#666666"
     borderopacity="1"
     objecttolerance="10"
     gridtolerance="10"
     guidetolerance="10"
     inkscape:pageopacity="0"
     inkscape:pageshadow="2"
     inkscape:window-width="1600"
     inkscape:window-height="821"
     id="namedview659"
     showgrid="false"
     inkscape:zoom="3.2482718"
     inkscape:cx="273.5484"
     inkscape:cy="409.97636"
     inkscape:window-x="0"
     inkscape:window-y="27"
     inkscape:window-maximized="1"
     inkscape:current-layer="svg2" />
  <metadata
     id="metadata4321">
    <rdf:RDF>
      <cc:Work
         rdf:about="">
        <dc:format>image/svg+xml</dc:format>
        <dc:type
           rdf:resource="http://purl.org/dc/dcmitype/StillImage" />
        <dc:title></dc:title>
      </cc:Work>
    </rdf:RDF>
  </metadata>

  <path
     style="fill:#010101"
     d="m 153,239 c -19.29628,10.1068 -35.89784,24.78369 -54.333641,36.46885 -9.746032,8.32066 -25.277462,12.6214 -28.707379,25.98943 10.307056,22.92658 37.56405,33.92848 53.60479,53.08074 23.28522,14.7741 12.39789,37.31214 10.86684,58.46127 -0.65103,19.79563 8.02486,38.22515 19.44408,53.8183 0.0876,13.91995 -31.90349,35.02457 -3.14719,41.12766 31.75568,-0.39587 63.54008,1.13262 95.2725,-0.006 19.25207,-6.5808 41.00426,2.46436 61.81371,-2.43182 23.28106,-1.22258 46.77912,-0.32628 69.92832,-2.57693 22.92231,-15.46076 -28.07351,-30.89777 -1.26144,-46.86781 C 390.50498,438.79689 387.18786,414.04679 382,394 c 17.87423,-14.93999 18.5116,-36.42509 19.87065,-57.42594 5.25206,-19.86251 14.03525,-38.69618 19.17732,-58.49812 -3.84842,-24.03985 -39.1751,-41.31194 -45.80958,-57.14885 17.78713,-29.29972 26.64951,-64.27647 19.59993,-98.29411 C 387.51638,67.544167 342.67824,21.758539 288.8189,10.337029 228.41755,-5.1087959 160.44586,26.883691 133.17057,82.782337 117.33803,113.72488 115.2685,151.24585 123.55952,184.65614 129.00838,205.07414 140.38108,222.47691 153,239 z"
     id="path6"
     inkscape:connector-curvature="0" />
  <path
     id="path8"
     d="m 328,25 1,1 z"
     inkscape:connector-curvature="0"
     style="fill:#576e57"
     sodipodi:nodetypes="ccc" />
  <path
     id="path12"
     d="M267,26l1,1-1-1z"
     fill="#444b19" />
  <path
     id="path14"
     d="M180,329l18,8c9.24-17.53,14.78-38.36,21.56-57,2.31-6.35,3.57-17.15,9.57-21.24,4.73-3.22,14.51-0.44,19.87,0.07,10.84,1.03,23.37,0.68,34-1.72,52.22-11.77,89.71-57.83,91.96-111.11,3.11-73.764-69.66-132.42-140.96-116.98-43.93,9.507-76.57,43.459-88.57,85.985-10.53,37.33,1.89,78.48,27.37,106.83,6.71,7.46,14.87,14.11,23.29,19.57,3.73,2.42,9.79,4.83,10.96,9.62,1.32,5.42-4.33,13.76-5.85,18.98-5.82,19.96-16.4,38.78-21.2,59z"
     fill="#ffff01" />
  <path
     id="path18"
     d="M275,27l1,1-1-1m-39,1l1,1-1-1m-8,2l1,1-1-1z"
     fill="#444b19" />
  <path
     id="path20"
     d="M291,31l1,1-1-1z"
     fill="#6c6c02" />
  <path
     id="path34"
     d="M207,38l1,1-1-1z"
     fill="#989801" />
  <path
     id="path38"
     d="M312,40l1,1-1-1z"
     fill="#989801" />
  <path
     id="path40"
     d="M313,40l1,1-1-1z"
     fill="#444b19" />
  <path
     id="path46"
     d="M320,44l1,1-1-1z"
     fill="#6c6c02" />
  <path
     id="path48"
     d="M321,45l1,1-1-1m-130,2l1,1-1-1z"
     fill="#444b19" />
  <path
     id="path50"
     d="M192,47l1,1-1-1z"
     fill="#989801" />
  <path
     id="path54"
     d="M190,48l1,1-1-1z"
     fill="#989801" />
  <path
     id="path56"
     d="M326,48l1,1-1-1z"
     fill="#444b19" />
  <path
     id="path58"
     d="m 327,49 1,1 -1,-1"
     inkscape:connector-curvature="0"
     style="fill:#989801"
     sodipodi:nodetypes="ccc" />
  <path
     id="path60"
     d="M359,50l1,1-1-1z"
     fill="#9fc79f" />
  <path
     id="path62"
     d="M186,51l1,1-1-1m-1,1l1,1-1-1m-1,1l1,1-1-1z"
     fill="#989801" />
  <path
     id="path64"
     d="M182,54l1,1-1-1m-1,1l1,1-1-1z"
     fill="#6c6c02" />
  <path
     id="path66"
     d="M334,55l1,1-1-1z"
     fill="#9fc79f" />
  <path
     id="path68"
     d="M180,56l1,1-1-1z"
     fill="#6c6c02" />
  <path
     id="path70"
     d="m 179,57 1,1 -1,-1 m -1,1 1,1 -1,-1 m -1,1 1,1 z"
     inkscape:connector-curvature="0"
     style="fill:#989801"
     sodipodi:nodetypes="ccccccccc" />
  <path
     id="path72"
     d="M176,60l1,1-1-1m-1,1l1,1-1-1z"
     fill="#6c6c02" />
  <path
     id="path74"
     d="M341,61l1,1-1-1z"
     fill="#989801" />
  <path
     id="path76"
     d="M174,62l1,1-1-1z"
     fill="#6c6c02" />
  <path
     id="path78"
     d="M342,62l1,1-1-1z"
     fill="#989801" />
  <path
     id="path80"
     d="M173,63l1,1-1-1z"
     fill="#6c6c02" />
  <path
     id="path82"
     d="M343,63l1,1-1-1m-171,1l1,1-1-1m172,0l1,1-1-1m-173,1l1,1-1-1m-1,1l1,1-1-1z"
     fill="#989801" />
  <path
     id="path88"
     d="M299,75.518c-52.42,11.12-36.2,92.762,16,81.662,52.67-11.2,36.32-92.76-16-81.662z"
     fill="#010101" />
  <path
     id="path92"
     d="M354,77l1,1-1-1z"
     fill="#444b19" />
  <path
     id="path94"
     d="M161,78l1,1-1-1z"
     fill="#6c6c02" />
  <path
     id="path96"
     d="M203,78.432c-41.94,5.523-52.25,62.648-12,79.888,7.45,3.19,18.11,2.68,26,1.47,48.64-7.5,34.78-87.781-14-81.358z"
     fill="#010101" />
  <path
     id="path98"
     d="M289,78l1,1-1-1m35,0l1,1-1-1z"
     fill="#989801" />
  <path
     id="path100"
     d="M355,78l1,1-1-1z"
     fill="#444b19" />
  <path
     id="path110"
     d="M221,80l1,1-1-1z"
     fill="#989801" />
  <path
     id="path114"
     d="M328,80l1,1-1-1z"
     fill="#9fc79f" />
  <path
     id="path116"
     d="M356,80l1,1-1-1z"
     fill="#6c6c02" />
  <path
     id="path120"
     d="M282,82l1,1-1-1z"
     fill="#6c6c02" />
  <path
     id="path122"
     d="M185,83l1,1-1-1z"
     fill="#444b19" />
  <path
     id="path124"
     d="M281,83l1,1-1-1z"
     fill="#989801" />
  <path
     id="path126"
     d="M358,83l1,1-1-1m-174,1l1,1-1-1z"
     fill="#6c6c02" />
  <path
     id="path128"
     d="M228,84l1,1-1-1z"
     fill="#444b19" />
  <path
     id="path130"
     d="M280,84l1,1-1-1z"
     fill="#989801" />
  <path
     id="path132"
     d="M359,84l1,1-1-1z"
     fill="#444b19" />
  <path
     id="path134"
     d="M182,85l1,1-1-1m48,0l1,1-1-1z"
     fill="#6c6c02" />
  <path
     id="path138"
     d="M334,85l1,1-1-1z"
     fill="#444b19" />
  <path
     id="path140"
     d="M359,85l1,1-1-1m-203,1l1,1-1-1m25,0l1,1-1-1m50,0l1,1-1-1z"
     fill="#6c6c02" />
  <path
     id="path142"
     d="M277,86l1,1-1-1z"
     fill="#989801" />
  <path
     id="path144"
     d="M305,86l1,1-1-1z"
     fill="#444b19" />
  <path
     id="path148"
     d="M335,86l1,1-1-1z"
     fill="#444b19" />
  <path
     id="path152"
     d="M232,87l1,1-1-1z"
     fill="#444b19" />
  <path
     id="path154"
     d="M276,87l1,1-1-1z"
     fill="#989801" />
  <path
     id="path158"
     d="m 283,134 c 2.92303,-6.34588 4.80429,-9.36607 10.18,-11.66 15.75,-7.07 24.49,8.35 22.82,21.66 38.8,-11.2 14.11,-71.907 -22,-53.85 -4.34,2.168 -8.17,5.944 -10.96,9.85 -3.18,4.48 -5.24,9.49 -5.71,15 -0.59,6.86 2.59,13.13 5.67,19 z"
     inkscape:connector-curvature="0"
     style="fill:#ffffff"
     sodipodi:nodetypes="ccccccc" />
  <path
     id="path162"
     d="M360,87l1,1-1-1m-205,1l1,1-1-1z"
     fill="#989801" />
  <path
     id="path164"
     d="M178,88l1,1-1-1z"
     fill="#6c6c02" />
  <path
     id="path166"
     d="m 276,88 1,1 z"
     inkscape:connector-curvature="0"
     style="fill:#444b19"
     sodipodi:nodetypes="ccc" />
  <path
     id="path168"
     d="M297,88l1,1-1-1z"
     fill="#576e57" />
  <path
     id="path176"
     d="M235,89l1,1-1-1z"
     fill="#444b19" />
  <path
     id="path178"
     d="M275,89l1,1-1-1z"
     fill="#6c6c02" />
  <path
     id="path180"
     d="M319,89l1,1-1-1z"
     fill="#779375" />
  <path
     id="path184"
     d="M201,90l1,1-1-1z"
     fill="#9fc79f" />
  <path
     id="path186"
     d="M196,147c-1.86-8.13-2.94-15.07,3.38-21.79,10.5-11.16,28.74-3.58,30.62,10.79,9.52-9.43,5.95-29.23-3.17-37.74-12.58-11.724-31.99-10.389-42.89,2.76-3.76,4.52-5.37,9.22-6.17,14.98-0.77,5.56,0.25,11.88,2.58,17,3.12,6.83,8.9,11.17,15.65,14z"
     fill="#FFF" />
  <path
     id="path190"
     d="M274,90l1,1-1-1z"
     fill="#989801" />
  <path
     id="path192"
     d="M320,90l1,1-1-1z"
     fill="#576e57" />
  <path
     id="path194"
     d="m 175,91 1,1 z"
     inkscape:connector-curvature="0"
     style="fill:#989801"
     sodipodi:nodetypes="ccc" />
  <path
     id="path196"
     d="M197,91l1,1-1-1z"
     fill="#444b19" />
  <path
     id="path198"
     d="M215,91l1,1-1-1z"
     fill="#576e57" />
  <path
     id="path202"
     d="M273,91l1,1-1-1z"
     fill="#989801" />
  <path
     id="path204"
     d="M291,91l1,1-1-1z"
     fill="#9fc79f" />
  <path
     id="path210"
     d="M290,92l1,1-1-1z"
     fill="#9fc79f" />
  <path
     id="path212"
     d="M324,92l1,1-1-1z"
     fill="#444b19" />
  <path
     id="path218"
     d="M238,93l1,1-1-1m34,0l1,1-1-1z"
     fill="#6c6c02" />
  <path
     id="path220"
     d="M288,93l1,1-1-1z"
     fill="#576e57" />
  <path
     id="path222"
     d="M289,93l1,1-1-1z"
     fill="#95bb95" />
  <path
     id="path224"
     d="M325,93l1,1-1-1z"
     fill="#444b19" />
  <path
     id="path226"
     d="M173,94l1,1-1-1z"
     fill="#6c6c02" />
  <path
     id="path230"
     d="M191,94l1,1-1-1z"
     fill="#9fc79f" />
  <path
     id="path232"
     d="M221,94l1,1-1-1z"
     fill="#779375" />
  <path
     id="path234"
     d="m 222,94 1,1 -1,-1"
     inkscape:connector-curvature="0"
     style="fill:#444b19"
     sodipodi:nodetypes="ccc" />
  <path
     id="path236"
     d="M271,94l1,1-1-1z"
     fill="#6c6c02" />
  <path
     id="path238"
     d="M287,94l1,1-1-1z"
     fill="#95bb95" />
  <path
     id="path240"
     d="M326,94l1,1-1-1z"
     fill="#779375" />
  <path
     id="path250"
     d="M240,95l1,1-1-1z"
     fill="#444b19" />
  <path
     id="path252"
     d="M286,95l1,1-1-1z"
     fill="#9fc79f" />
  <path
     id="path256"
     d="m 364,95 1,1 z"
     inkscape:connector-curvature="0"
     style="fill:#989801"
     sodipodi:nodetypes="ccc" />
  <path
     id="path260"
     d="M285,96l1,1-1-1z"
     fill="#9fc79f" />
  <path
     id="path264"
     d="M284,97l1,1-1-1z"
     fill="#9fc79f" />
  <path
     id="path272"
     d="M126,99l1,1-1-1z"
     fill="#576e57" />
  <path
     id="path274"
     d="M185,99l1,1-1-1z"
     fill="#9fc79f" />
  <path
     id="path276"
     d="M366,99l1,1-1-1z"
     fill="#444b19" />
  <path
     id="path278"
     d="M169,100l1,1-1-1z"
     fill="#6c6c02" />
  <path
     id="path280"
     d="M184,100l1,1-1-1z"
     fill="#9fc79f" />
  <path
     id="path286"
     d="M345,100l1,1-1-1m21,0l1,1-1-1z"
     fill="#989801" />
  <path
     id="path288"
     d="M149,101l1,1-1-1z"
     fill="#6c6c02" />
  <path
     id="path300"
     d="M182,102l1,1-1-1z"
     fill="#9fc79f" />
  <path
     id="path302"
     d="M230,102l1,1-1-1z"
     fill="#444b19" />
  <path
     id="path304"
     d="M244,102l1,1-1-1z"
     fill="#6c6c02" />
  <path
     id="path322"
     d="M346,103l1,1-1-1z"
     fill="#444b19" />
  <path
     id="path330"
     d="M233,107l1,1-1-1z"
     fill="#444b19" />
  <path
     id="path332"
     d="M166,108l1,1-1-1z"
     fill="#989801" />
  <path
     id="path334"
     d="M246,108l1,1-1-1z"
     fill="#6c6c02" />
  <path
     id="path338"
     d="m 278,108 1,1 -1,-1"
     inkscape:connector-curvature="0"
     style="fill:#576e57"
     sodipodi:nodetypes="ccc" />
  <path
     id="path340"
     d="M369,108l1,1-1-1m-223,1l1,1-1-1z"
     fill="#444b19" />
  <path
     id="path342"
     d="M178,109l1,1-1-1z"
     fill="#576e57" />
  <path
     id="path348"
     d="M234,110l1,1-1-1z"
     fill="#95bb95" />
  <path
     id="path360"
     d="M372,117l1,1-1-1z"
     fill="#444b19" />
  <path
     id="path366"
     d="M213,119l1,1-1-1z"
     fill="#576e57" />
  <path
     id="path368"
     d="m 206,120 1,1 -1,-1"
     inkscape:connector-curvature="0"
     style="fill:#779375"
     sodipodi:nodetypes="ccc" />
  <path
     id="path370"
     d="M295,121l1,1-1-1z"
     fill="#9fc79f" />
  <path
     id="path372"
     d="M304,121l1,1-1-1z"
     fill="#576e57" />
  <path
     id="path374"
     d="M221,122l1,1-1-1z"
     fill="#444b19" />
  <path
     id="path378"
     d="M143,123l1,1-1-1z"
     fill="#6c6c02" />
  <path
     id="path380"
     d="M200,123l1,1-1-1z"
     fill="#9fc79f" />
  <path
     id="path382"
     d="M223,123l1,1-1-1z"
     fill="#576e57" />
  <path
     id="path390"
     d="M199,124l1,1-1-1z"
     fill="#9fc79f" />
  <path
     id="path392"
     d="M224,124l1,1-1-1m54,0l1,1-1-1z"
     fill="#576e57" />
  <path
     id="path394"
     d="M289,124l1,1-1-1z"
     fill="#9fc79f" />
  <path
     id="path396"
     d="M310,124l1,1-1-1z"
     fill="#926a61" />
  <path
     id="path398"
     d="M311,124l1,1-1-1z"
     fill="#95bb95" />
  <path
     id="path400"
     d="M198,125l1,1-1-1z"
     fill="#9fc79f" />
  <path
     id="path402"
     d="M225,125l1,1-1-1z"
     fill="#444b19" />
  <path
     id="path404"
     d="M247,125l1,1-1-1z"
     fill="#989801" />
  <path
     id="path406"
     d="M266,125l1,1-1-1z"
     fill="#6c6c02" />
  <path
     id="path408"
     d="M312,125l1,1-1-1z"
     fill="#9fc79f" />
  <path
     id="path426"
     d="M166,130l1,1-1-1z"
     fill="#444b19" />
  <path
     id="path428"
     d="M195,130l1,1-1-1z"
     fill="#9fc79f" />
  <path
     id="path432"
     d="M315,130l1,1-1-1z"
     fill="#95bb95" />
  <path
     id="path434"
     d="M179,131l1,1-1-1z"
     fill="#926a61" />
  <path
     id="path436"
     d="M229,131l1,1-1-1z"
     fill="#9fc79f" />
  <path
     id="path438"
     d="M233,131l1,1-1-1z"
     fill="#779375" />
  <path
     id="path444"
     d="M281,131l1,1-1-1z"
     fill="#576e57" />
  <path
     id="path446"
     d="M284,131l1,1-1-1z"
     fill="#95bb95" />
  <path
     id="path450"
     d="M282,132l1,1-1-1z"
     fill="#9fc79f" />
  <path
     id="path454"
     d="M345,132l1,1-1-1m-178,1l1,1-1-1z"
     fill="#989801" />
  <path
     id="path456"
     d="M180,133l1,1-1-1z"
     fill="#444b19" />
  <path
     id="path458"
     d="M194,133l1,1-1-1z"
     fill="#576e57" />
  <path
     id="path460"
     d="M232,133l1,1-1-1z"
     fill="#444b19" />
  <path
     id="path464"
     d="m 231,135 1,1 -1,-1"
     inkscape:connector-curvature="0"
     style="fill:#444b19"
     sodipodi:nodetypes="ccc" />
  <path
     id="path474"
     d="M169,138l1,1-1-1z"
     fill="#6c6c02" />
  <path
     id="path476"
     d="M243,138l1,1-1-1m28,0l1,1-1-1z"
     fill="#444b19" />
  <path
     id="path480"
     d="M342,138l1,1-1-1z"
     fill="#6c6c02" />
  <path
     id="path482"
     d="M169,139l1,1-1-1z"
     fill="#9fc79f" />
  <path
     id="path486"
     d="M243,139l1,1-1-1z"
     fill="#989801" />
  <path
     id="path488"
     d="M272,139l1,1-1-1z"
     fill="#6c6c02" />
  <path
     id="path490"
     d="M325,139l1,1-1-1z"
     fill="#444b19" />
  <path
     id="path492"
     d="M342,139l1,1-1-1m-100,1l1,1-1-1z"
     fill="#9fc79f" />
  <path
     id="path496"
     d="M273,141l1,1-1-1z"
     fill="#989801" />
  <path
     id="path500"
     d="M274,142l1,1-1-1z"
     fill="#6c6c02" />
  <path
     id="path504"
     d="M275,143l1,1-1-1z"
     fill="#6c6c02" />
  <path
     id="path508"
     d="M190,144l1,1-1-1z"
     fill="#444b19" />
  <path
     id="path510"
     d="M276,144l1,1-1-1z"
     fill="#6c6c02" />
  <path
     id="path514"
     d="M192,145l1,1-1-1z"
     fill="#576e57" />
  <path
     id="path520"
     d="M237,146l1,1-1-1z"
     fill="#444b19" />
  <path
     id="path522"
     d="m 175,147 1,1 z"
     inkscape:connector-curvature="0"
     style="fill:#6c6c02"
     sodipodi:nodetypes="ccc" />
  <path
     id="path524"
     d="M237,147l1,1-1-1m42,0l1,1-1-1z"
     fill="#989801" />
  <path
     id="path526"
     d="M176,148l1,1-1-1z"
     fill="#6c6c02" />
  <path
     id="path528"
     d="M236,148l1,1-1-1z"
     fill="#444b19" />
  <path
     id="path530"
     d="M280,148l1,1-1-1z"
     fill="#989801" />
  <path
     id="path532"
     d="M177,149l1,1-1-1z"
     fill="#444b19" />
  <path
     id="path534"
     d="M281,149l1,1-1-1z"
     fill="#989801" />
  <path
     id="path536"
     d="M178,150l1,1-1-1z"
     fill="#444b19" />
  <path
     id="path538"
     d="M282,150l1,1-1-1z"
     fill="#6c6c02" />
  <path
     id="path542"
     d="M328,152l1,1-1-1z"
     fill="#989801" />
  <path
     id="path544"
     d="M182,153l1,1-1-1z"
     fill="#444b19" />
  <path
     id="path546"
     d="M325,153l1,1-1-1z"
     fill="#6c6c02" />
  <path
     id="path548"
     d="m 326,153 1,1 -1,-1"
     inkscape:connector-curvature="0"
     style="fill:#989801"
     sodipodi:nodetypes="ccc" />
  <path
     id="path550"
     d="M184,154l1,1-1-1z"
     fill="#444b19" />
  <path
     id="path552"
     d="m 229,154 1,1 -1,-1"
     inkscape:connector-curvature="0"
     style="fill:#989801"
     sodipodi:nodetypes="ccc" />
  <path
     id="path558"
     d="M320,155l1,1-1-1z"
     fill="#6c6c02" />
  <path
     id="path560"
     d="m 223,157 1,1 -1,-1 m -32,1 1,1 z"
     inkscape:connector-curvature="0"
     style="fill:#989801"
     sodipodi:nodetypes="cccccc" />
  <path
     id="path566"
     d="M215,160l1,1-1-1z"
     fill="#9fc79f" />
  <path
     id="path568"
     d="m 143,162 1,1 z"
     inkscape:connector-curvature="0"
     style="fill:#6c6c02"
     sodipodi:nodetypes="ccc" />
  <path
     id="path578"
     d="M369,177l1,1-1-1z"
     fill="#6c6c02" />
  <path
     id="path580"
     d="m 367,183 1,1 z"
     inkscape:connector-curvature="0"
     style="fill:#989801"
     sodipodi:nodetypes="ccc" />
  <path
     id="path582"
     d="M149,184l1,1-1-1z"
     fill="#6c6c02" />
  <path
     id="path584"
     d="M366,185l1,1-1-1z"
     fill="#989801" />
  <path
     id="path586"
     d="M366,186l1,1-1-1z"
     fill="#444b19" />
  <path
     id="path590"
     d="M390,187l1,1-1-1z"
     fill="#576e57" />
  <path
     id="path592"
     d="M364,190l1,1-1-1m-212,1l1,1-1-1z"
     fill="#989801" />
  <path
     id="path594"
     d="M364,191l1,1-1-1z"
     fill="#444b19" />
  <path
     id="path596"
     d="m 153,193 1,1 -1,-1 m 1.33,1.67 0,0 m 1,2 0,0 M 360,198 l 1,1 z"
     inkscape:connector-curvature="0"
     style="fill:#989801"
     sodipodi:nodetypes="cccccccccc" />
  <path
     id="path598"
     d="M156,199l1,1-1-1z"
     fill="#6c6c02" />
  <path
     id="path600"
     d="M157,200l1,1-1-1z"
     fill="#444b19" />
  <path
     id="path602"
     d="M359,200l1,1-1-1z"
     fill="#6c6c02" />
  <path
     id="path604"
     d="M359,201l1,1-1-1z"
     fill="#444b19" />
  <path
     id="path608"
     d="M161,207l1,1-1-1z"
     fill="#989801" />
  <path
     id="path610"
     d="M355,207l1,1-1-1z"
     fill="#444b19" />
  <path
     id="path612"
     d="m 162.33,208.67 c -108.22,202.22 -54.11,101.11 0,0 z"
     inkscape:connector-curvature="0"
     style="fill:#989801"
     sodipodi:nodetypes="cc" />
  <path
     id="path614"
     d="M354,208l1,1-1-1z"
     fill="#444b19" />
  <path
     id="path616"
     d="M163,210l1,1-1-1m3,4l1,1-1-1m1,1l1,1-1-1m182,0l1,1-1-1m-181,1l1,1-1-1z"
     fill="#989801" />
  <path
     id="path620"
     d="M170,219l1,1-1-1m1,1l1,1-1-1m1,1l1,1-1-1m172,0l1,1-1-1z"
     fill="#989801" />
  <path
     id="path622"
     d="M173,222l1,1-1-1z"
     fill="#6c6c02" />
  <path
     id="path624"
     d="M343,222l1,1-1-1m-1,1l1,1-1-1z"
     fill="#989801" />
  <path
     id="path626"
     d="M175,224l1,1-1-1z"
     fill="#6c6c02" />
  <path
     id="path628"
     d="M341,224l1,1-1-1z"
     fill="#989801" />
  <path
     id="path630"
     d="M176,225l1,1-1-1z"
     fill="#6c6c02" />
  <path
     id="path632"
     d="M177,226l1,1-1-1m1,1l1,1-1-1m1,1l1,1-1-1m158,0l1,1-1-1z"
     fill="#989801" />
  <path
     id="path634"
     d="M180,229l1,1-1-1z"
     fill="#6c6c02" />
  <path
     id="path636"
     d="M336,229l1,1-1-1z"
     fill="#989801" />
  <path
     id="path638"
     d="M181,230l1,1-1-1z"
     fill="#6c6c02" />
  <path
     id="path640"
     d="M334,230l1,1-1-1z"
     fill="#989801" />
  <path
     id="path642"
     d="M335,230l1,1-1-1z"
     fill="#444b19" />
  <path
     id="path644"
     d="M182,231l1,1-1-1z"
     fill="#6c6c02" />
  <path
     id="path646"
     d="m 184,232 1,1 -1,-1 m 1,1 1,1 -1,-1 m 1,1 1,1 -1,-1 m 1,1 1,1 -1,-1 m 3,2 1,1 z"
     inkscape:connector-curvature="0"
     style="fill:#989801"
     sodipodi:nodetypes="ccccccccccccccc" />
  <path
     id="path648"
     d="M326,237l1,1-1-1z"
     fill="#6c6c02" />
  <path
     id="path650"
     d="M191,238l1,1-1-1z"
     fill="#444b19" />
  <path
     id="path652"
     d="M192,238l1,1-1-1z"
     fill="#989801" />
  <path
     id="path654"
     d="M320,241l1,1-1-1m-1,1l1,1-1-1z"
     fill="#6c6c02" />
  <path
     id="path656"
     d="m 334,248 c -222.66667,176 -111.33333,88 0,0 z"
     inkscape:connector-curvature="0"
     style="fill:#5a081a"
     sodipodi:nodetypes="cc" />
  <path
     id="path658"
     d="M237,270c-8.48,15.92-15.41,36.57-20.08,54-1.36,5.06-6.23,11.67-4.89,17,3.2,12.76,17.13,22.54,28.97,25.62,22.34,5.83,48.15,7.53,70-1.07,3.88-1.53,9.74-2.89,11.97-6.74,2.07-3.57,0.82-8.86,1.2-12.81,0.99-10.2,6.53-18.52,16.83-21,0.01-9.11,1.67-18.72,8.46-25.47,3.91-3.89,10.2-6.15,14.14-1.19,9.75,12.3-3.7,27.68,12.4,36.66,13.76-29.42,26.34-75.12-15-88.74-5.23-1.73-11.36-4.63-17-4.08-10.25,1.01-22.68,14.27-32.42,18.73-22.23,10.18-50.54,14.88-74.58,9.09z"
     fill="#ff013d" />
  <path
     id="path660"
     d="M199,243l1,1-1-1z"
     fill="#444b19" />
  <path
     id="path666"
     d="m 315,244 1,1 z"
     inkscape:connector-curvature="0"
     style="fill:#989801"
     sodipodi:nodetypes="ccc" />
  <path
     id="path670"
     d="M202,245l1,1-1-1z"
     fill="#444b19" />
  <path
     id="path672"
     d="M313,245l1,1-1-1z"
     fill="#989801" />
  <path
     id="path674"
     d="M314,245l1,1-1-1z"
     fill="#6c6c02" />
  <path
     id="path680"
     d="M311,246l1,1-1-1z"
     fill="#989801" />
  <path
     id="path684"
     d="M205,247l1,1-1-1z"
     fill="#444b19" />
  <path
     id="path686"
     d="M365,247l1,1-1-1z"
     fill="#5a081a" />
  <path
     id="path688"
     d="m 206.67,249.33 c -137.78,175.11333 -68.89,87.55667 0,0 z"
     inkscape:connector-curvature="0"
     style="fill:#6c6c02"
     sodipodi:nodetypes="cc" />
  <path
     id="path692"
     d="M401,250l1,1-1-1z"
     fill="#576e57" />
  <path
     id="path694"
     d="m 181,251 c -120.666667,174 -60.33333,87 0,0 z"
     inkscape:connector-curvature="0"
     style="fill:#5a081a"
     sodipodi:nodetypes="cc" />
  <path
     id="path698"
     d="M328,251l1,1-1-1z"
     fill="#5a081a" />
  <path
     id="path700"
     d="m 181,253 c -120.666667,172.66667 -60.33333,86.33333 0,0 z"
     inkscape:connector-curvature="0"
     style="fill:#a30127"
     sodipodi:nodetypes="cc" />
  <path
     id="path702"
     d="m 137,338 c 3.18,-4.17 6.58,-7.19 11,-10 -1.97,-3.92 -6.68,-6.5 -7.46,-11 -1.64,-9.41 12.19,-20.93 20.46,-21.82 4.38,-0.48 12.3,5.08 15.49,2.99 2.51,-1.64 3.42,-6.55 4.51,-9.17 3.1,-7.51 12.87,-25.96 7.97,-33.72 -2.47285,-3.92245 -7.70872,-3.82217 -13.38023,-2.14588 -7.63086,2.25541 -16.05037,7.36385 -19.58977,9.36588 -13.64,7.73 -26.48,17.21 -39,26.63 -3.86,2.9 -12.34,8.01 -13.48,13 -1.24,5.43 2.89,10.17 6.2,13.83 7.67,8.5 17.17,16.64 27.28,22.04 z"
     inkscape:connector-curvature="0"
     style="fill:#ff013d"
     sodipodi:nodetypes="cccccccsccccc" />
  <path
     id="path704"
     d="m 185.67,252.33 c -123.78,173.11333 -61.89,86.55667 0,0 z"
     inkscape:connector-curvature="0"
     style="fill:#a30127"
     sodipodi:nodetypes="cc" />
  <path
     id="path718"
     d="M170,255l1,1-1-1z"
     fill="#a30127" />
  <path
     id="path720"
     d="M289,255l1,1-1-1z"
     fill="#989801" />
  <path
     id="path724"
     d="M320,256l1,1-1-1z"
     fill="#a30127" />
  <path
     id="path726"
     d="M230,257l1,1-1-1z"
     fill="#444b19" />
  <path
     id="path728"
     d="M281,257l1,1-1-1z"
     fill="#989801" />
  <path
     id="path730"
     d="M318,257l1,1-1-1z"
     fill="#5a081a" />
  <path
     id="path734"
     d="m 163.33,258.67 c -108.886667,168.88667 -54.44333,84.44333 0,0 z"
     inkscape:connector-curvature="0"
     style="fill:#5a081a"
     sodipodi:nodetypes="cc" />
  <path
     id="path736"
     d="M205,258l1,1-1-1m23,0l1,1-1-1z"
     fill="#6c6c02" />
  <path
     id="path740"
     d="m 161,259 1,1 z"
     inkscape:connector-curvature="0"
     style="fill:#5a081a"
     sodipodi:nodetypes="ccc" />
  <path
     id="path742"
     d="M227,259l1,1-1-1z"
     fill="#6c6c02" />
  <path
     id="path748"
     d="m 160.33,260.67 c -106.886667,167.55333 -53.44333,83.77667 0,0 z"
     inkscape:connector-curvature="0"
     style="fill:#a30127"
     sodipodi:nodetypes="cc" />
  <path
     id="path750"
     d="M226,260l1,1-1-1z"
     fill="#444b19" />
  <path
     id="path752"
     d="m 154,263 1,1 -1,-1"
     inkscape:connector-curvature="0"
     style="fill:#a30127"
     sodipodi:nodetypes="ccc" />
  <path
     id="path756"
     d="M223,267l1,1-1-1z"
     fill="#989801" />
  <path
     id="path760"
     d="M386,267l1,1-1-1m-198,1l1,1-1-1z"
     fill="#5a081a" />
  <path
     id="path762"
     d="M201,268l1,1-1-1z"
     fill="#989801" />
  <path
     id="path764"
     d="m 223.33,268.67 c -148.886667,162.22 -74.44333,81.11 0,0 z"
     inkscape:connector-curvature="0"
     style="fill:#444b19"
     sodipodi:nodetypes="cc" />
  <path
     id="path768"
     d="m 222,270 c -148,161.33333 -74,80.66667 0,0 z"
     inkscape:connector-curvature="0"
     style="fill:#6c6c02"
     sodipodi:nodetypes="cc" />
  <path
     id="path770"
     d="M236,270l1,1-1-1z"
     fill="#5a081a" />
  <path
     id="path774"
     d="m 200,271 c -133.333333,160.66667 -66.66667,80.33333 0,0 z"
     inkscape:connector-curvature="0"
     style="fill:#989801"
     sodipodi:nodetypes="cc" />
  <path
     id="path776"
     d="m 235.33,271.67 0,0 M 245,271 l 1,1 -1,-1"
     inkscape:connector-curvature="0"
     style="fill:#5a081a"
     sodipodi:nodetypes="ccccc" />
  <path
     id="path778"
     d="M139,273l1,1-1-1z"
     fill="#a30127" />
  <path
     id="path780"
     d="m 186.33,273.67 c -124.22,158.88667 -62.11,79.44333 0,0 z"
     inkscape:connector-curvature="0"
     style="fill:#5a081a"
     sodipodi:nodetypes="cc" />
  <path
     id="path784"
     d="M137,274l1,1-1-1z"
     fill="#a30127" />
  <path
     id="path786"
     d="M199,274l1,1-1-1z"
     fill="#6c6c02" />
  <path
     id="path788"
     d="m 185,275 1,1 z"
     inkscape:connector-curvature="0"
     style="fill:#a30127"
     sodipodi:nodetypes="ccc" />
  <path
     id="path790"
     d="m 198.52215,276.58025 c -132.348099,156.9465 -66.17405,78.47325 0,0 z"
     inkscape:connector-curvature="0"
     style="fill:#444b19"
     sodipodi:nodetypes="cc" />
  <path
     id="path792"
     d="M234,275l1,1-1-1z"
     fill="#a30127" />
  <path
     id="path796"
     d="M134,276l1,1-1-1z"
     fill="#a30127" />
  <path
     id="path800"
     d="M133,277l1,1-1-1z"
     fill="#a30127" />
  <path
     id="path802"
     d="M131,278l1,1-1-1m53.33,0.67c-0.05,0.05-0.11,1.11,0.34,0.66,0.05-0.05,0.11-1.11-0.34-0.66z"
     fill="#5a081a" />
  <path
     id="path806"
     d="M130,279l1,1-1-1z"
     fill="#5a081a" />
  <path
     id="path808"
     d="m 183.33,280.67 c -122.22,154.22 -61.11,77.11 0,0 z"
     inkscape:connector-curvature="0"
     style="fill:#a30127"
     sodipodi:nodetypes="cc" />
  <path
     id="path810"
     d="M127,281l1,1-1-1z"
     fill="#5a081a" />
  <path
     id="path812"
     d="M125.67,282.33c-0.45,0.45,0.61,0.39,0.66,0.34,0.45-0.45-0.61-0.39-0.66-0.34z"
     fill="#a30127" />
  <path
     id="path814"
     d="M218,282l1,1-1-1z"
     fill="#6c6c02" />
  <path
     id="path816"
     d="M231,282l1,1-1-1m-107,1l1,1-1-1z"
     fill="#5a081a" />
  <path
     id="path820"
     d="m 231.33,283.67 0,0"
     inkscape:connector-curvature="0"
     style="fill:#a30127"
     sodipodi:nodetypes="cc" />
  <path
     id="path822"
     d="M83,286l1,1-1-1z"
     fill="#9fc79f" />
  <path
     id="path824"
     d="m 216.33,287.67 c -144.22,149.55333 -72.11,74.77667 0,0 z"
     inkscape:connector-curvature="0"
     style="fill:#444b19"
     sodipodi:nodetypes="cc" />
  <path
     id="path828"
     d="M180,289l1,1-1-1z"
     fill="#a30127" />
  <path
     id="path830"
     d="m 215,289 c -143.333333,148.66667 -71.66667,74.33333 0,0 z"
     inkscape:connector-curvature="0"
     style="fill:#989801"
     sodipodi:nodetypes="cc" />
  <path
     id="path832"
     d="M193,290l1,1-1-1m22.33,0.67c-0.05,0.05-0.11,1.11,0.34,0.66,0.05-0.05,0.11-1.11-0.34-0.66z"
     fill="#6c6c02" />
  <path
     id="path836"
     d="m 192.33,293.67 c -128.22,145.55333 -64.11,72.77667 0,0 z"
     inkscape:connector-curvature="0"
     style="fill:#989801"
     sodipodi:nodetypes="cc" />
  <path
     id="path838"
     d="m 109,295 1,1 -1,-1 m 57,0 c -110.666667,144.66667 -55.33333,72.33333 0,0 z"
     inkscape:connector-curvature="0"
     style="fill:#a30127"
     sodipodi:nodetypes="ccccc" />
  <path
     id="path840"
     d="m 178.33,295.67 c -118.886667,144.22 -59.44333,72.11 0,0 z"
     inkscape:connector-curvature="0"
     style="fill:#5a081a"
     sodipodi:nodetypes="cc" />
  <path
     id="path842"
     d="m 191.33,295.67 c -127.553333,144.22 -63.77667,72.11 0,0 z"
     inkscape:connector-curvature="0"
     style="fill:#6c6c02"
     sodipodi:nodetypes="cc" />
  <path
     id="path844"
     d="M213,295l1,1-1-1z"
     fill="#989801" />
  <path
     id="path850"
     d="m 108,296 1,1 -1,-1 m 46.67,0.33 c -103.113333,143.78 -51.55667,71.89 0,0 z"
     inkscape:connector-curvature="0"
     style="fill:#a30127"
     sodipodi:nodetypes="ccccc" />
  <path
     id="path852"
     d="M213,296l1,1-1-1z"
     fill="#6c6c02" />
  <path
     id="path854"
     d="m 107,297 1,1 z"
     inkscape:connector-curvature="0"
     style="fill:#a30127"
     sodipodi:nodetypes="ccc" />
  <path
     id="path856"
     d="m 171.33,297.67 c -114.22,142.88667 -57.11,71.44333 0,0 z"
     inkscape:connector-curvature="0"
     style="fill:#5a081a"
     sodipodi:nodetypes="cc" />
  <path
     id="path858"
     d="M191,297l1,1-1-1z"
     fill="#989801" />
  <path
     id="path860"
     d="m 226,297 1,1 -1,-1 m -119.67,1.67 c -70.886667,142.22 -35.443333,71.11 0,0 z"
     inkscape:connector-curvature="0"
     style="fill:#a30127"
     sodipodi:nodetypes="ccccc" />
  <path
     id="path862"
     d="M177,298l1,1-1-1z"
     fill="#5a081a" />
  <path
     id="path864"
     d="m 190.33,298.67 c -126.886667,142.22 -63.44333,71.11 0,0 z"
     inkscape:connector-curvature="0"
     style="fill:#444b19"
     sodipodi:nodetypes="cc" />
  <path
     id="path866"
     d="m 173.67,299.33 c -115.78,141.78 -57.89,70.89 0,0 z"
     inkscape:connector-curvature="0"
     style="fill:#5a081a"
     sodipodi:nodetypes="cc" />
  <path
     id="path868"
     d="m 176,299 1,1 -1,-1"
     inkscape:connector-curvature="0"
     style="fill:#a30127"
     sodipodi:nodetypes="ccc" />
  <path
     id="path872"
     d="m 102,302 c -68,140 -34,70 0,0 z"
     inkscape:connector-curvature="0"
     style="fill:#a30127"
     sodipodi:nodetypes="cc" />
  <path
     id="path874"
     d="m 147,302 c 1.10811,1.10811 1.10811,1.10811 0,0"
     inkscape:connector-curvature="0"
     style="fill:#5a081a"
     sodipodi:nodetypes="cc" />
  <path
     id="path876"
     d="M188,304l1,1-1-1z"
     fill="#6c6c02" />
  <path
     id="path878"
     d="M210,304l1,1-1-1z"
     fill="#989801" />
  <path
     id="path880"
     d="m 223.33,305.67 0,0"
     inkscape:connector-curvature="0"
     style="fill:#a30127"
     sodipodi:nodetypes="cc" />
  <path
     id="path882"
     d="M209,306l1,1-1-1z"
     fill="#6c6c02" />
  <path
     id="path890"
     d="m 208,312 c -138.666667,133.33333 -69.33333,66.66667 0,0 z"
     inkscape:connector-curvature="0"
     style="fill:#444b19"
     sodipodi:nodetypes="cc" />
  <path
     id="path892"
     d="m 221.33,310.67 0,0 M 106,312 l 1,1 z"
     inkscape:connector-curvature="0"
     style="fill:#a30127"
     sodipodi:nodetypes="ccccc" />
  <path
     id="path894"
     d="M185,312l1,1-1-1z"
     fill="#444b19" />
  <path
     id="path896"
     d="m 207.33,312.67 c -138.22,132.88667 -69.11,66.44333 0,0 z"
     inkscape:connector-curvature="0"
     style="fill:#6c6c02"
     sodipodi:nodetypes="cc" />
  <path
     id="path898"
     d="M107,313l1,1-1-1z"
     fill="#a30127" />
  <path
     id="path900"
     d="m 140,313 c -93.333333,132.66667 -46.666667,66.33333 0,0 z"
     inkscape:connector-curvature="0"
     style="fill:#5a081a"
     sodipodi:nodetypes="cc" />
  <path
     id="path902"
     d="M185,313l1,1-1-1z"
     fill="#989801" />
  <path
     id="path904"
     d="M108,314l1,1-1-1z"
     fill="#a30127" />
  <path
     id="path908"
     d="m 206.33,314.67 c -137.553333,131.55333 -68.77667,65.77667 0,0 z"
     inkscape:connector-curvature="0"
     style="fill:#989801"
     sodipodi:nodetypes="cc" />
  <path
     id="path910"
     d="m 109,315 1,1 -1,-1 m 1.33,1.67 c -73.553333,130.22 -36.776667,65.11 0,0 z"
     inkscape:connector-curvature="0"
     style="fill:#a30127"
     sodipodi:nodetypes="ccccc" />
  <path
     id="path914"
     d="m 183.33,317.67 c -122.22,129.55333 -61.11,64.77667 0,0 z"
     inkscape:connector-curvature="0"
     style="fill:#444b19"
     sodipodi:nodetypes="cc" />
  <path
     id="path916"
     d="M111,318l1,1-1-1m1,1l1,1-1-1z"
     fill="#a30127" />
  <path
     id="path918"
     d="M183,319l1,1-1-1z"
     fill="#989801" />
  <path
     id="path920"
     d="M218,319l1,1-1-1z"
     fill="#5a081a" />
  <path
     id="path922"
     d="m 382,320 1,1 -1,-1 m -267,1 1,1 -1,-1 m 1,1 1,1 z"
     inkscape:connector-curvature="0"
     style="fill:#a30127"
     sodipodi:nodetypes="ccccccccc" />
  <path
     id="path926"
     d="m 117,323 1,1 -1,-1 m 1,1 1,1 -1,-1"
     inkscape:connector-curvature="0"
     style="fill:#a30127"
     sodipodi:nodetypes="cccccc" />
  <path
     id="path930"
     d="m 146,325 1,1 -1,-1 m 2.33,1.67 c -98.886667,123.55333 -49.443333,61.77667 0,0 z"
     inkscape:connector-curvature="0"
     style="fill:#a30127"
     sodipodi:nodetypes="ccccc" />
  <path
     id="path932"
     d="M180,326l1,1-1-1z"
     fill="#444b19" />
  <path
     id="path934"
     d="m 335,326 1,1 -1,-1 m -213,1 1,1 -1,-1 m 93.33,0.67 c -143.553333,122.88667 -71.77667,61.44333 0,0 z"
     inkscape:connector-curvature="0"
     style="fill:#a30127"
     sodipodi:nodetypes="cccccccc" />
  <path
     id="path938"
     d="M123,328l1,1-1-1z"
     fill="#a30127" />
  <path
     id="path940"
     d="M147,328l1,1-1-1z"
     fill="#5a081a" />
  <path
     id="path942"
     d="M201,328l1,1-1-1z"
     fill="#6c6c02" />
  <path
     id="path944"
     d="m 201.33,329.67 c -134.22,121.55333 -67.11,60.77667 0,0 z"
     inkscape:connector-curvature="0"
     style="fill:#444b19"
     sodipodi:nodetypes="cc" />
  <path
     id="path946"
     d="m 214.33,329.67 c -142.886667,121.55333 -71.44333,60.77667 0,0 z"
     inkscape:connector-curvature="0"
     style="fill:#5a081a"
     sodipodi:nodetypes="cc" />
  <path
     id="path948"
     d="M184,330l1,1-1-1z"
     fill="#989801" />
  <path
     id="path952"
     d="m 373,333 1,1 z"
     inkscape:connector-curvature="0"
     style="fill:#5a081a"
     sodipodi:nodetypes="ccc" />
  <path
     id="path954"
     d="M191,334l1,1-1-1z"
     fill="#444b19" />
  <path
     id="path956"
     d="M192,334l1,1-1-1z"
     fill="#989801" />
  <path
     id="path958"
     d="M199,334l1,1-1-1z"
     fill="#6c6c02" />
  <path
     id="path960"
     d="M327,334l1,1-1-1z"
     fill="#a30127" />
  <path
     id="path962"
     d="M374,334l1,1-1-1z"
     fill="#5a081a" />
  <path
     id="path964"
     d="m 194.33,335.67 c -129.553333,117.55333 -64.77667,58.77667 0,0 z"
     inkscape:connector-curvature="0"
     style="fill:#6c6c02"
     sodipodi:nodetypes="cc" />
  <path
     id="path968"
     d="m 375,335 1,1 -1,-1 m -241.33,1.33 c -89.113333,117.11333 -44.556667,58.55667 0,0 z"
     inkscape:connector-curvature="0"
     style="fill:#5a081a"
     sodipodi:nodetypes="ccccc" />
  <path
     id="path970"
     d="M195,336l1,1-1-1z"
     fill="#444b19" />
  <path
     id="path972"
     d="m 198.33,336.67 c -132.22,116.88667 -66.11,58.44333 0,0 z"
     inkscape:connector-curvature="0"
     style="fill:#989801"
     sodipodi:nodetypes="cc" />
  <path
     id="path974"
     d="M104,337l1,1-1-1z"
     fill="#9fc79f" />
  <path
     id="path976"
     d="M197,337l1,1-1-1z"
     fill="#444b19" />
  <path
     id="path980"
     d="M343,338l1,1-1-1z"
     fill="#926a61" />
  <path
     id="path982"
     d="M344.04,338.74c-8.51,3.44-8.51,27.18-1.48,32.23,3.87,2.78,17.29-0.65,21.44-2.32,23.49-9.46-4.63-36.1-19.96-29.91z"
     fill="#fbb5a7" />
  <path
     id="path984"
     d="M341,339l1,1-1-1m-1,1l1,1-1-1z"
     fill="#444b19" />
  <path
     id="path986"
     d="M357,340l1,1-1-1z"
     fill="#926a61" />
  <path
     id="path988"
     d="M211,341l1,1-1-1z"
     fill="#a30127" />
  <path
     id="path992"
     d="M212,342l1,1-1-1z"
     fill="#a30127" />
  <path
     id="path994"
     d="M339,342l1,1-1-1m22,0l1,1-1-1z"
     fill="#926a61" />
  <path
     id="path996"
     d="M324,343l1,1-1-1z"
     fill="#5a081a" />
  <path
     id="path1000"
     d="m 159,344 c -106,112 -53,56 0,0 z"
     inkscape:connector-curvature="0"
     style="fill:#b9867c"
     sodipodi:nodetypes="cc" />
  <path
     id="path1002"
     d="M213,344l1,1-1-1z"
     fill="#a30127" />
  <path
     id="path1004"
     d="M364,344l1,1-1-1z"
     fill="#444b19" />
  <path
     id="path1006"
     d="M201,365c-6.76-9.02-21.93-17.44-33-19.53-4.52-0.85-12.18-1.71-14.24,3.59-2.56,6.57,3.94,13.06,9.24,15.61,11.8,5.69,25.9,4.17,38,0.33z"
     fill="#fbb5a7" />
  <path
     id="path1008"
     d="M168,345l1,1-1-1z"
     fill="#926a61" />
  <path
     id="path1010"
     d="m 214.33,345.67 c -142.886667,110.88667 -71.44333,55.44333 0,0 z"
     inkscape:connector-curvature="0"
     style="fill:#5a081a"
     sodipodi:nodetypes="cc" />
  <path
     id="path1012"
     d="M365,345l1,1-1-1z"
     fill="#444b19" />
  <path
     id="path1016"
     d="M215,347l1,1-1-1z"
     fill="#a30127" />
  <path
     id="path1018"
     d="M176,348l1,1-1-1z"
     fill="#b9867c" />
  <path
     id="path1022"
     d="m 178.67,349.33 c -119.113333,108.44667 -59.55667,54.22333 0,0 z"
     inkscape:connector-curvature="0"
     style="fill:#444b19"
     sodipodi:nodetypes="cc" />
  <path
     id="path1024"
     d="M216,349l1,1-1-1z"
     fill="#5a081a" />
  <path
     id="path1026"
     d="m 180.67,350.33 c -120.446667,107.78 -60.22333,53.89 0,0 z"
     inkscape:connector-curvature="0"
     style="fill:#926a61"
     sodipodi:nodetypes="cc" />
  <path
     id="path1028"
     d="M217,350l1,1-1-1z"
     fill="#5a081a" />
  <path
     id="path1030"
     d="M370,350l1,1-1-1z"
     fill="#444b19" />
  <path
     id="path1032"
     d="M182,351l1,1-1-1z"
     fill="#b9867c" />
  <path
     id="path1034"
     d="M183,351l1,1-1-1z"
     fill="#576e57" />
  <path
     id="path1036"
     d="M218,351l1,1-1-1z"
     fill="#5a081a" />
  <path
     id="path1038"
     d="M371,351l1,1-1-1z"
     fill="#576e57" />
  <path
     id="path1040"
     d="M185,352l1,1-1-1z"
     fill="#444b19" />
  <path
     id="path1046"
     d="m 153,354 c -102,105.33333 -51,52.66667 0,0 z"
     inkscape:connector-curvature="0"
     style="fill:#444b19"
     sodipodi:nodetypes="cc" />
  <path
     id="path1050"
     d="m 222,356 1,1 -1,-1"
     inkscape:connector-curvature="0"
     style="fill:#5a081a"
     sodipodi:nodetypes="ccc" />
  <path
     id="path1052"
     d="M192,357l1,1-1-1z"
     fill="#926a61" />
  <path
     id="path1054"
     d="M223,357l1,1-1-1z"
     fill="#5a081a" />
  <path
     id="path1056"
     d="M155,358l1,1-1-1z"
     fill="#b9867c" />
  <path
     id="path1058"
     d="M338,358l1,1-1-1z"
     fill="#444b19" />
  <path
     id="path1060"
     d="m 194.67,359.33 c -129.78,101.78 -64.89,50.89 0,0 z"
     inkscape:connector-curvature="0"
     style="fill:#b9867c"
     sodipodi:nodetypes="cc" />
  <path
     id="path1064"
     d="M320,361l1,1-1-1z"
     fill="#5a081a" />
  <path
     id="path1066"
     d="M199,362l1,1-1-1z"
     fill="#926a61" />
  <path
     id="path1068"
     d="M319,362l1,1-1-1z"
     fill="#a30127" />
  <path
     id="path1072"
     d="M200,363l1,1-1-1z"
     fill="#926a61" />
  <path
     id="path1074"
     d="M229,363l1,1-1-1z"
     fill="#5a081a" />
  <path
     id="path1078"
     d="M161,364l1,1-1-1z"
     fill="#444b19" />
  <path
     id="path1080"
     d="M162,364l1,1-1-1m39,0l-1,2h2c0-1.85,0.3-1.35-1-2z"
     fill="#926a61" />
  <path
     id="path1084"
     d="m 163.67,365.33 c -109.113333,97.78 -54.55667,48.89 0,0 z"
     inkscape:connector-curvature="0"
     style="fill:#444b19"
     sodipodi:nodetypes="cc" />
  <path
     id="path1086"
     d="M199,365l1,1-1-1z"
     fill="#b9867c" />
  <path
     id="path1088"
     d="m 311.67,365.33 c -207.78,97.78 -103.89,48.89 0,0 z"
     inkscape:connector-curvature="0"
     style="fill:#5a081a"
     sodipodi:nodetypes="cc" />
  <path
     id="path1090"
     d="m 196,366 c -130.666667,97.33333 -65.33333,48.66667 0,0 z"
     inkscape:connector-curvature="0"
     style="fill:#444b19"
     sodipodi:nodetypes="cc" />
  <path
     id="path1096"
     d="M134,367l1,1-1-1z"
     fill="#576e57" />
  <path
     id="path1098"
     d="M191,367l1,1-1-1z"
     fill="#b9867c" />
  <path
     id="path1100"
     d="M244,367l1,1-1-1m61,0l1,1-1-1z"
     fill="#a30127" />
  <path
     id="path1104"
     d="M366,367l1,1-1-1z"
     fill="#444b19" />
  <path
     id="path1106"
     d="M364,368l1,1-1-1z"
     fill="#926a61" />
  <path
     id="path1108"
     d="M298,369l1,1-1-1z"
     fill="#5a081a" />
  <path
     id="path1110"
     d="M357,385c-17.01,3.2-27.07,2.97-31-16-11.91,1.56-23.62,7.8-36,9.57-4.1,0.59-11.08-0.98-14.3,2.03-5.1,4.77-5.44,14.02-5.74,20.4-0.22,4.66-2.39,9.33-1.6,14,1.72,10.26,13.38,21.18,19.74,29,4.59,5.66,10.59,14.3,17.9,16.49,8.24,2.46,16.55-4.65,23-8.83,9.21-5.99,19.98-13.42,24.98-23.66,2.33-4.78,0.91-11.82,1.04-17,0.21-8.7,1.98-17.26,1.98-26z"
     fill="#95bb95" />
  <path
     id="path1116"
     d="M358,370l1,1-1-1z"
     fill="#444b19" />
  <path
     id="path1134"
     d="M305,375l1,1-1-1z"
     fill="#576e57" />
  <path
     id="path1138"
     d="M157,384c0,13.94-0.51,25.95,5.22,39,4.77,10.86,10.96,21.1,18.95,30,6.92,7.7,14.83,8.96,24.83,9,17.21,0.08,33.73-6.21,42.48-22,11.07-19.97,3.58-55.02-21.52-61.31-7.81-1.95-23.68,6.35-31.96,8.1-13.65,2.89-24.79-0.54-38-2.79z"
     fill="#9fc79f" />
  <path
     id="path1142"
     d="M290,378l1,1-1-1z"
     fill="#779375" />
  <path
     id="path1146"
     d="M229,379l1,1-1-1z"
     fill="#779375" />
  <path
     id="path1148"
     d="m 216,380 c -144,88 -72,44 0,0 z"
     inkscape:connector-curvature="0"
     style="fill:#576e57"
     sodipodi:nodetypes="cc" />
  <path
     id="path1150"
     d="m 274.67,381.33 c -183.113333,87.11333 -91.55667,43.55667 0,0 z"
     inkscape:connector-curvature="0"
     style="fill:#444b19"
     sodipodi:nodetypes="cc" />
  <path
     id="path1152"
     d="m 232.33,381.67 c -154.886667,86.88667 -77.44333,43.44333 0,0 z"
     inkscape:connector-curvature="0"
     style="fill:#779375"
     sodipodi:nodetypes="cc" />
  <path
     id="path1154"
     d="m 211,382 c -140.666667,86.66667 -70.33333,43.33333 0,0 z"
     inkscape:connector-curvature="0"
     style="fill:#95bb95"
     sodipodi:nodetypes="cc" />
  <path
     id="path1156"
     d="m 273,385 c -182,84.66667 -91,42.33333 0,0 z"
     inkscape:connector-curvature="0"
     style="fill:#444b19"
     sodipodi:nodetypes="cc" />
  <path
     id="path1158"
     d="m 208,383 1,1 -1,-1 m 27,0 1,1 -1,-1 m 1,1 1,1 -1,-1"
     inkscape:connector-curvature="0"
     style="fill:#779375"
     sodipodi:nodetypes="ccccccccc" />
  <path
     id="path1160"
     d="M162,385l1,1-1-1z"
     fill="#576e57" />
  <path
     id="path1162"
     d="M238,385l1,1-1-1z"
     fill="#444b19" />
  <path
     id="path1166"
     d="m 239,386 1,1 -1,-1 m 33,0 1,1 -1,-1"
     inkscape:connector-curvature="0"
     style="fill:#444b19"
     sodipodi:nodetypes="cccccc" />
  <path
     id="path1168"
     d="M137,387l1,1-1-1z"
     fill="#9fc79f" />
  <path
     id="path1172"
     d="M191,387l1,1-1-1z"
     fill="#779375" />
  <path
     id="path1174"
     d="M240,387l1,1-1-1m1,1l1,1-1-1m1,1l1,1-1-1m-106,1l1,1-1-1m107,0l1,1-1-1z"
     fill="#576e57" />
  <path
     id="path1176"
     d="M136,391l1,1-1-1z"
     fill="#9fc79f" />
  <path
     id="path1178"
     d="m 244,391 1,1 -1,-1 m 1.33,1.67 0,0 m 0.67,1.33 1,1 z"
     inkscape:connector-curvature="0"
     style="fill:#576e57"
     sodipodi:nodetypes="cccccccc" />
  <path
     id="path1180"
     d="M155,395l1,1-1-1z"
     fill="#779375" />
  <path
     id="path1186"
     d="M251,403l1,1-1-1z"
     fill="#444b19" />
  <path
     id="path1198"
     d="M365,406c-0.86,6.78,1.35,18.22-1.49,24.2-7.25,15.25-24.45,25.44-38.51,33.66-6.58,3.84-13.19,7.73-21,5.03-16.77-5.8-20.94-25.76-35-33.89,0,8.86,0.3,16.69,3.74,25,17.58,42.43,71.5,11.84,89.46-14,7.43-10.69,13.35-29.47,2.8-40m-208,3l1,1-1-1z"
     fill="#576e57" />
  <path
     id="path1204"
     d="M268,416l1,1-1-1z"
     fill="#779375" />
  <path
     id="path1212"
     d="m 253,425 1,1 z"
     inkscape:connector-curvature="0"
     style="fill:#779375"
     sodipodi:nodetypes="ccc" />
  <path
     id="path1214"
     d="m 274,426 1,1 z"
     inkscape:connector-curvature="0"
     style="fill:#444b19"
     sodipodi:nodetypes="ccc" />
  <path
     id="path1216"
     d="M275,427l1,1-1-1z"
     fill="#779375" />
  <path
     id="path1220"
     d="M278,431l1,1-1-1z"
     fill="#779375" />
  <path
     id="path1222"
     d="M155,432c2.63,10.96,11.11,20.8,17.28,30.04,2.17,3.23,4.52,8.56,8.1,10.4,4.57,2.35,11.58,2.11,16.62,2.72,15.31,1.83,33.26,2.59,48-2.5,5.63-1.95,11.75-4.02,14.68-9.66,2.98-5.74-0.56-14.03-1.68-20-5.56,5.92-9.39,12.43-16,17.54-14.23,10.98-43.14,17.76-59,6.03-12.43-9.19-17.42-24.31-28-34.57m11,0l1,1-1-1m113,0l1,1-1-1z"
     fill="#576e57" />
  <path
     id="path1224"
     d="M362,432l1,1-1-1z"
     fill="#444b19" />
  <path
     id="path1226"
     d="M167,433l1,1-1-1z"
     fill="#576e57" />
  <path
     id="path1232"
     d="M349,433l1,1-1-1z"
     fill="#576e57" />
  <path
     id="path1234"
     d="m 280,434 1,1 -1,-1"
     inkscape:connector-curvature="0"
     style="fill:#444b19"
     sodipodi:nodetypes="ccc" />
  <path
     id="path1238"
     d="M281,435l1,1-1-1z"
     fill="#444b19" />
  <path
     id="path1240"
     d="M282,436l1,1-1-1z"
     fill="#576e57" />
  <path
     id="path1242"
     d="M169,437l1,1-1-1z"
     fill="#444b19" />
  <path
     id="path1246"
     d="M357,437l1,1-1-1z"
     fill="#444b19" />
  <path
     id="path1248"
     d="m 170,438 1,1 -1,-1"
     inkscape:connector-curvature="0"
     style="fill:#779375"
     sodipodi:nodetypes="ccc" />
  <path
     id="path1250"
     d="M356,438l1,1-1-1m-186,1l1,1-1-1z"
     fill="#444b19" />
  <path
     id="path1252"
     d="M284,439l1,1-1-1z"
     fill="#576e57" />
  <path
     id="path1254"
     d="M355,439l1,1-1-1m-197,1l1,1-1-1m13,0l1,1-1-1z"
     fill="#444b19" />
  <path
     id="path1256"
     d="M248,440l1,1-1-1z"
     fill="#576e57" />
  <path
     id="path1258"
     d="M285,440l1,1-1-1z"
     fill="#444b19" />
  <path
     id="path1260"
     d="M343,440l1,1-1-1z"
     fill="#779375" />
  <path
     id="path1262"
     d="m 354,440 1,1 -1,-1 m -11,1 1,1 -1,-1 m -54,4 1,1 -1,-1 m -30,7 c -172.666667,40 -86.33333,20 0,0 z"
     inkscape:connector-curvature="0"
     style="fill:#444b19"
     sodipodi:nodetypes="ccccccccccc" />
  <path
     id="path1264"
     d="M290,446l1,1-1-1z"
     fill="#576e57" />
  <path
     id="path1268"
     d="M236,453l1,1-1-1m90,0l1,1-1-1z"
     fill="#576e57" />
  <path
     id="path1270"
     d="M341,453l1,1-1-1z"
     fill="#444b19" />
  <path
     id="path1274"
     d="M297,454l1,1-1-1z"
     fill="#444b19" />
  <path
     id="path1278"
     d="M355,454l1,1-1-1z"
     fill="#444b19" />
  <path
     id="path1280"
     d="M233,455l1,1-1-1z"
     fill="#576e57" />
  <path
     id="path1282"
     d="M248,455l1,1-1-1m38,0l1,1-1-1m12,0l1,1-1-1z"
     fill="#444b19" />
  <path
     id="path1288"
     d="M320,456l1,1-1-1z"
     fill="#576e57" />
  <path
     id="path1290"
     d="M321,456l1,1-1-1z"
     fill="#444b19" />
  <path
     id="path1292"
     d="M229,457l1,1-1-1z"
     fill="#779375" />
  <path
     id="path1294"
     d="M288,457l1,1-1-1z"
     fill="#444b19" />
  <path
     id="path1296"
     d="M319,457l1,1-1-1z"
     fill="#779375" />
  <path
     id="path1298"
     d="m 289,458 1,1 z"
     inkscape:connector-curvature="0"
     style="fill:#444b19"
     sodipodi:nodetypes="ccc" />
  <path
     id="path1300"
     d="M375,459l1,1-1-1z"
     fill="#9fc79f" />
  <path
     id="path1308"
     d="m 200,462 c -133.333333,33.33333 -66.66667,16.66667 0,0 z"
     inkscape:connector-curvature="0"
     style="fill:#576e57"
     sodipodi:nodetypes="cc" />
</svg>
