<?xml version="1.0" encoding="utf-8"?>
<!-- Generator: Adobe Illustrator 17.1.0, SVG Export Plug-In . SVG Version: 6.00 Build 0)  -->
<!DOCTYPE svg PUBLIC "-//W3C//DTD SVG 1.1//EN" "http://www.w3.org/Graphics/SVG/1.1/DTD/svg11.dtd">
<svg version="1.1" id="Layer_1" xmlns="http://www.w3.org/2000/svg" xmlns:xlink="http://www.w3.org/1999/xlink" x="0px" y="0px"
	 viewBox="0 0 150.5 91.1" enable-background="new 0 0 150.5 91.1" xml:space="preserve">
<g>
	<g>
		<g id="layer3_20_" transform="translate(-92,-63.999774)">
			<g id="layer5_20_">
				<g id="path2554_21_">
					<path fill="#010101" d="M176.9,70.8l-2.4,9.6c3.4-6.8,8.9-11.9,15.2-16.4c-4.6,5.3-8.8,10.6-11.3,16
						c4.3-6.1,10.1-9.4,16.6-11.7c-8.7,7.7-15.6,16.1-20.8,24.4l-4.2-1.8C170.7,84.2,173.2,77.4,176.9,70.8L176.9,70.8z"/>
				</g>
				<g id="path2536_21_">
					<path fill="#010101" d="M173.7,92.3l2.9,1.5c-0.3,1.9,0.1,6.1,2,7.1c8.4,5.2,16.2,10.8,19.3,16.5c11,19.9-7.7,38.4-24,36.6
						c8.8-6.5,11.4-19.9,8.1-34.6c-1.3-5.7-3.4-10.9-7.1-16.8C173.3,99.9,173.9,96.3,173.7,92.3L173.7,92.3z"/>
				</g>
			</g>
			<g id="layer4_20_">
				<g id="path2540_21_">
					<path fill="#010101" d="M170.5,101.8c-0.6,3.1-1.3,8.7-4,10.8c-1.1,0.8-2.3,1.6-3.5,2.4c-4.9,3.3-9.7,6.4-11.9,14.3
						c-0.5,1.7-0.1,3.5,0.3,5.2c1.2,4.9,4.6,10.1,7.3,13.2c0,0.1,0.5,0.5,0.5,0.6c2.2,2.6,2.9,3.4,11.3,5.3l-0.2,0.9
						c-5.1-1.3-9.2-2.6-11.9-5.6c0-0.1-0.5-0.5-0.5-0.5c-2.8-3.2-6.3-8.6-7.5-13.7c-0.5-2-0.9-3.6-0.3-5.7
						c2.3-8.2,7.3-11.5,12.3-14.9c1.1-0.7,2.5-1.4,3.6-2.3C168.3,110.3,169.4,105.6,170.5,101.8L170.5,101.8z"/>
				</g>
				<g id="path2542_21_">
					<path fill="#010101" d="M172.7,114.8c0.1,3.5-0.3,5.3,0.6,7.8c0.5,1.5,2.4,3.5,2.9,5.5c0.7,2.6,1.5,5.5,1.5,7.3
						c0,2-0.1,5.8-1,9.8c-0.7,3.3-2.2,6.2-4.8,7.8c-2.7-0.5-5.8-1.5-7.6-3.1c-3.6-3.1-6.7-8.3-7.1-12.8c-0.3-3.7,3.1-9.2,7.9-11.9
						c4-2.4,5-5,5.9-9.4c-1.2,3.8-2.4,6.9-6.3,9c-5.7,3-8.6,7.9-8.3,12.7c0.4,6.1,2.8,10.2,7.6,13.5c2,1.4,5.8,2.9,8.2,3.3v-0.3
						c1.8-0.3,4.1-3.3,5.3-7.2c1-3.6,1.4-8.1,1.3-11c-0.1-1.7-0.8-5.3-2.2-8.6c-0.7-1.8-1.9-3.6-2.6-4.9
						C173.1,120.8,173.1,118,172.7,114.8z"/>
				</g>
				<g id="path2544_21_">
					<path fill="#010101" d="M172.1,128.5c0.1,2.4,1,5.4,1.4,8.5c0.3,2.3,0.2,4.6,0.1,6.6c-0.1,2.3-0.8,6.5-1.9,8.6
						c-1-0.5-1.4-1-2.1-1.8c-0.8-1.1-1.4-2.3-1.9-3.6c-0.4-1-0.9-2.2-1.1-3.5c-0.3-2-0.2-5.2,2.1-8.4c1.8-2.6,2.2-2.8,2.8-5.7
						c-0.8,2.6-1.4,2.9-3.3,5.1c-2.1,2.4-2.4,6-2.4,8.9c0,1.2,0.5,2.6,1,3.8c0.5,1.3,1,2.7,1.7,3.7c1.1,1.6,2.5,2.6,3.2,2.7
						c0,0,0,0,0,0c0,0,0,0,0,0v-0.1c1.3-1.5,2.1-2.9,2.4-4.4c0.3-1.8,0.4-3.5,0.6-5.6c0.2-1.8,0.1-4.1-0.4-6.5
						C173.7,133.8,172.6,130.7,172.1,128.5L172.1,128.5z"/>
				</g>
				<g id="path2550_21_">
					<path fill="#010101" d="M172.5,99c0.1,3.5,0.3,10,1.3,12.6c0.3,0.9,2.8,4.7,4.5,9.4c1.2,3.2,1.5,6.2,1.7,7.1
						c0.8,3.8-0.2,10.3-1.5,16.4c-0.7,3.3-3,7.4-5.6,9l-0.5,0.9c1.5-0.1,5.1-3.6,6.4-8.1c2.2-7.5,3-11,2-19.4
						c-0.1-0.8-0.5-3.6-1.8-6.5c-1.9-4.5-4.6-8.8-4.9-9.7C173.4,109.3,172.6,103.1,172.5,99L172.5,99z"/>
				</g>
				<g id="path2552_21_">
					<path fill="#010101" d="M173.7,92.6c-0.2,3.6-0.2,6.4,0.4,9.1c0.7,2.9,4.5,7.1,6.1,11.9c3,9.2,2.2,21.2,0.1,30.5
						c-0.8,3.3-4.6,8.1-8.5,9.6l2.8,0.7c1.5-0.1,5.5-3.8,7.1-8c2.5-6.7,3-14.6,2-23c-0.1-0.8-1.4-8-2.7-11
						c-1.8-4.5-4.7-7.7-5.7-10.5c-0.8-2.1-1.1-7.7-0.6-8.8L173.7,92.6z"/>
				</g>
			</g>
		</g>
		<g id="path2528_16_">
			<path fill="#010101" d="M3.8,8.8h54.1c2,0,3.8,1.7,3.8,3.8v16c0,2.1-1.8,3.8-3.8,3.8H46.8c-2.5,0-3.6,1.4-3.6,3v52.3
				c0,1.8-1.4,3.1-3.1,3.1H21.7c-1.7,0-3-1.3-3-3.1V34.9c0-1.6-1.5-2.6-2.6-2.6H3.8c-2.1,0-3.8-1.7-3.8-3.8v-16
				C0,10.5,1.7,8.8,3.8,8.8z"/>
		</g>
		<g id="path2532_17_">
			<path fill="#010101" d="M142.6,30h4.8c1.8,0,3.2,1.4,3.2,3.1v17.1c0,2.2,0.1,3.1-2.6,3.1c-5.3,0-7.7,2.8-7.7,5.9v28.9
				c0,1.3-1.3,2.5-2.8,2.5h-17.2c-1.5,0-2.8-1.1-2.8-2.5V55.2c0-0.6,0-1.4,0.1-1.9c0.9-12.2,10.5-21.9,22.6-23.2
				C140.5,30.1,141.9,30,142.6,30L142.6,30z"/>
		</g>
	</g>
	<g>
		<path fill="#010101" d="M101.7,46.3c-2.9-2.6-6.5-4.8-10.3-6.9c-1.7-0.9-6.9-5-5.1-10.8l-13.1-5.4l-0.9,0.7
			c4.4,7.9,2.1,12.1-0.1,13.5c-4.4,3-10.8,6.8-13.9,10.1c-6.1,6.3-7.9,12.3-7.3,20.1c0.6,10.1,7.9,18.5,17.8,21.8
			c4.3,1.4,8.3,1.6,12.7,1.6c7.1,0,14.5-1.9,19.8-6.3c5.7-4.7,9-11.8,9-19.1C110.3,58.3,107.2,51.3,101.7,46.3z M99.8,83.2
			c-4.9,4-13.7,6.8-18.4,6.6c-5.2-0.3-10.3-1.1-14.8-3.3c-7.9-3.8-13.1-12.1-13.5-18.8C52.4,54,59,50.1,65.1,45.1
			c3.4-2.8,8.2-4.2,10.9-9.2c0.5-1.1,0.8-3.5,0.2-6c-0.3-0.9-1.5-3.9-2-4.6l9.8,4.3c-1.2,4.5,2.5,9.2,5.5,10.9
			c3,1.7,7.7,4.9,10.6,7.5c5.1,4.5,7.7,10.9,7.7,17.6C107.8,72.3,105,78.9,99.8,83.2z"/>
	</g>
</g>
</svg>
